<svg xmlns="http://www.w3.org/2000/svg" width="694" height="694" viewBox="0 0 694 694">
  <g id="Quiz_Tree_LogoMark_" data-name="Quiz Tree [LogoMark]" transform="translate(1947 -5545)">
    <rect id="Rectangle_11" data-name="Rectangle 11" width="694" height="694" rx="50" transform="translate(-1947 5545)" fill="#eaeaea" opacity="0"/>
    <g id="Group_13" data-name="Group 13" transform="translate(-3947.5 3585)">
      <path id="Path_18" data-name="Path 18" d="M464.024,457.807h-91.71a10.09,10.09,0,0,1-7.13-2.95l-12.58-12.59a10.065,10.065,0,0,0-12.59-1.33c-1.73,1.12-3.48,2.23-5.24,3.3A219.415,219.415,0,0,1,59.924,107.6a218.071,218.071,0,0,1,135.39-68.84,223.5,223.5,0,0,1,30.37-1.41,218.991,218.991,0,0,1,214.56,219.32c0,1.16-.01,2.33-.03,3.49a10.046,10.046,0,0,1-10.07,9.85h-64.86a10.089,10.089,0,0,1-10.07-10.37q.03-1.485.03-2.97a133.662,133.662,0,0,0-8.93-48.18,10.008,10.008,0,0,1,2.31-10.66l15.9-15.9a10.08,10.08,0,0,0,2.01-11.37l-1.16-2.49c-.11-.23-.22-.47-.34-.7a114.774,114.774,0,0,0-54.35-54.65,116.171,116.171,0,0,0-19.59-7.24,14.164,14.164,0,0,0-3.64-.48,14.013,14.013,0,0,0-9.91,4.1L263,123.637a10.133,10.133,0,0,1-9.63,2.63,134.485,134.485,0,0,0-32.5-3.97c-74.1,0-134.37,60.28-134.37,134.37s60.27,134.37,134.37,134.37a133.763,133.763,0,0,0,50.75-9.95c.05-.02.09-.04.14-.06,6.64-2.64,8.23-11.37,3.17-16.43l-14.94-14.94-34.38-34.37a10.067,10.067,0,0,0-14.25,0L183.654,343a10.133,10.133,0,0,1-12.14,1.62,101.324,101.324,0,0,1-46.18-55.59,10.071,10.071,0,0,1,2.43-10.35l155.41-155.41a10.071,10.071,0,0,1,10.35-2.43,100.23,100.23,0,0,1,17.16,7.68,101.565,101.565,0,0,1,38.43,38.5c.06.12.13.23.18.35a10.113,10.113,0,0,1-1.8,11.79l-61.78,61.77a10.067,10.067,0,0,0,0,14.25l185.44,185.44a10.072,10.072,0,0,1-7.13,17.19" transform="translate(2110 2069)" fill="#fff"/>
      <path id="Path_19" data-name="Path 19" d="M434.336,30.819A132.162,132.162,0,0,1,413.349,3.073a6.094,6.094,0,0,0-10.586,0,132.162,132.162,0,0,1-20.987,27.746A131.509,131.509,0,0,1,353.2,52.765a6.12,6.12,0,0,0,0,10.66,132.37,132.37,0,0,1,49.564,49.692,6.094,6.094,0,0,0,10.586,0,132.37,132.37,0,0,1,49.564-49.692,6.119,6.119,0,0,0,0-10.66,131.509,131.509,0,0,1-28.577-21.946" transform="translate(2110 2069)" fill="#fff"/>
    </g>
  </g>
</svg>
